<mxfile host="Electron" modified="2023-10-29T11:25:36.268Z" agent="Mozilla/5.0 (X11; Linux x86_64) AppleWebKit/537.36 (KHTML, like Gecko) draw.io/22.0.3 Chrome/114.0.5735.289 Electron/25.8.4 Safari/537.36" etag="rVvsFo3mKXWhfb7Cv_2e" version="22.0.3" type="device">
  <diagram name="PÃ¡gina-1" id="i2mNw5BXTuavugjohQGH">
    <mxGraphModel dx="948" dy="581" grid="1" gridSize="10" guides="1" tooltips="1" connect="1" arrows="1" fold="1" page="1" pageScale="1" pageWidth="827" pageHeight="1169" math="0" shadow="0">
      <root>
        <mxCell id="0" />
        <mxCell id="1" parent="0" />
        <mxCell id="hoTKAHF6jTt6GLiqsa_z-98" value="" style="rounded=0;whiteSpace=wrap;html=1;fillColor=#eeeeee;strokeColor=#36393d;" vertex="1" parent="1">
          <mxGeometry x="50" y="100" width="630" height="230" as="geometry" />
        </mxCell>
        <mxCell id="hoTKAHF6jTt6GLiqsa_z-23" value="" style="group;fillColor=#ffff88;strokeColor=#36393d;" vertex="1" connectable="0" parent="1">
          <mxGeometry x="80" y="120" width="120" height="80" as="geometry" />
        </mxCell>
        <mxCell id="hoTKAHF6jTt6GLiqsa_z-1" value="&lt;b&gt;Data&lt;/b&gt;" style="rounded=0;whiteSpace=wrap;html=1;verticalAlign=top;fillColor=#f9f7ed;strokeColor=#36393d;" vertex="1" parent="hoTKAHF6jTt6GLiqsa_z-23">
          <mxGeometry width="120" height="80" as="geometry" />
        </mxCell>
        <mxCell id="hoTKAHF6jTt6GLiqsa_z-22" value="" style="group" vertex="1" connectable="0" parent="hoTKAHF6jTt6GLiqsa_z-23">
          <mxGeometry x="10" y="30" width="100" height="50" as="geometry" />
        </mxCell>
        <mxCell id="hoTKAHF6jTt6GLiqsa_z-7" value="" style="rounded=0;whiteSpace=wrap;html=1;verticalAlign=top;fillColor=#f5f5f5;fontColor=#333333;strokeColor=#666666;strokeWidth=0.5;" vertex="1" parent="hoTKAHF6jTt6GLiqsa_z-22">
          <mxGeometry y="10" width="20" height="10" as="geometry" />
        </mxCell>
        <mxCell id="hoTKAHF6jTt6GLiqsa_z-8" value="" style="rounded=0;whiteSpace=wrap;html=1;verticalAlign=top;fillColor=#f5f5f5;fontColor=#333333;strokeColor=#666666;strokeWidth=0.5;" vertex="1" parent="hoTKAHF6jTt6GLiqsa_z-22">
          <mxGeometry x="20" y="10" width="20" height="10" as="geometry" />
        </mxCell>
        <mxCell id="hoTKAHF6jTt6GLiqsa_z-9" value="" style="rounded=0;whiteSpace=wrap;html=1;verticalAlign=top;fillColor=#f5f5f5;fontColor=#333333;strokeColor=#666666;strokeWidth=0.5;" vertex="1" parent="hoTKAHF6jTt6GLiqsa_z-22">
          <mxGeometry x="40" y="10" width="20" height="10" as="geometry" />
        </mxCell>
        <mxCell id="hoTKAHF6jTt6GLiqsa_z-11" value="" style="rounded=0;whiteSpace=wrap;html=1;verticalAlign=top;fillColor=#f5f5f5;fontColor=#333333;strokeColor=#666666;strokeWidth=0.5;" vertex="1" parent="hoTKAHF6jTt6GLiqsa_z-22">
          <mxGeometry x="80" y="10" width="20" height="10" as="geometry" />
        </mxCell>
        <mxCell id="hoTKAHF6jTt6GLiqsa_z-2" value="" style="rounded=0;whiteSpace=wrap;html=1;verticalAlign=top;fillColor=#f5f5f5;fontColor=#333333;strokeColor=#666666;strokeWidth=1;" vertex="1" parent="hoTKAHF6jTt6GLiqsa_z-22">
          <mxGeometry width="20" height="10" as="geometry" />
        </mxCell>
        <mxCell id="hoTKAHF6jTt6GLiqsa_z-3" value="" style="rounded=0;whiteSpace=wrap;html=1;verticalAlign=top;fillColor=#f5f5f5;fontColor=#333333;strokeColor=#666666;" vertex="1" parent="hoTKAHF6jTt6GLiqsa_z-22">
          <mxGeometry x="20" width="20" height="10" as="geometry" />
        </mxCell>
        <mxCell id="hoTKAHF6jTt6GLiqsa_z-4" value="" style="rounded=0;whiteSpace=wrap;html=1;verticalAlign=top;fillColor=#f5f5f5;fontColor=#333333;strokeColor=#666666;" vertex="1" parent="hoTKAHF6jTt6GLiqsa_z-22">
          <mxGeometry x="40" width="20" height="10" as="geometry" />
        </mxCell>
        <mxCell id="hoTKAHF6jTt6GLiqsa_z-6" value="" style="rounded=0;whiteSpace=wrap;html=1;verticalAlign=top;fillColor=#f5f5f5;fontColor=#333333;strokeColor=#666666;" vertex="1" parent="hoTKAHF6jTt6GLiqsa_z-22">
          <mxGeometry x="80" width="20" height="10" as="geometry" />
        </mxCell>
        <mxCell id="hoTKAHF6jTt6GLiqsa_z-12" value="" style="rounded=0;whiteSpace=wrap;html=1;verticalAlign=top;fillColor=#f5f5f5;fontColor=#333333;strokeColor=#666666;strokeWidth=0.5;" vertex="1" parent="hoTKAHF6jTt6GLiqsa_z-22">
          <mxGeometry y="20" width="20" height="10" as="geometry" />
        </mxCell>
        <mxCell id="hoTKAHF6jTt6GLiqsa_z-13" value="" style="rounded=0;whiteSpace=wrap;html=1;verticalAlign=top;fillColor=#f5f5f5;fontColor=#333333;strokeColor=#666666;strokeWidth=0.5;" vertex="1" parent="hoTKAHF6jTt6GLiqsa_z-22">
          <mxGeometry x="20" y="20" width="20" height="10" as="geometry" />
        </mxCell>
        <mxCell id="hoTKAHF6jTt6GLiqsa_z-14" value="" style="rounded=0;whiteSpace=wrap;html=1;verticalAlign=top;fillColor=#f5f5f5;fontColor=#333333;strokeColor=#666666;strokeWidth=0.5;" vertex="1" parent="hoTKAHF6jTt6GLiqsa_z-22">
          <mxGeometry x="40" y="20" width="20" height="10" as="geometry" />
        </mxCell>
        <mxCell id="hoTKAHF6jTt6GLiqsa_z-16" value="" style="rounded=0;whiteSpace=wrap;html=1;verticalAlign=top;fillColor=#f5f5f5;fontColor=#333333;strokeColor=#666666;strokeWidth=0.5;" vertex="1" parent="hoTKAHF6jTt6GLiqsa_z-22">
          <mxGeometry x="80" y="20" width="20" height="10" as="geometry" />
        </mxCell>
        <mxCell id="hoTKAHF6jTt6GLiqsa_z-17" value="" style="rounded=0;whiteSpace=wrap;html=1;verticalAlign=top;fillColor=#f5f5f5;fontColor=#333333;strokeColor=#666666;strokeWidth=0.5;" vertex="1" parent="hoTKAHF6jTt6GLiqsa_z-22">
          <mxGeometry y="30" width="20" height="10" as="geometry" />
        </mxCell>
        <mxCell id="hoTKAHF6jTt6GLiqsa_z-18" value="" style="rounded=0;whiteSpace=wrap;html=1;verticalAlign=top;fillColor=#f5f5f5;fontColor=#333333;strokeColor=#666666;strokeWidth=0.5;" vertex="1" parent="hoTKAHF6jTt6GLiqsa_z-22">
          <mxGeometry x="20" y="30" width="20" height="10" as="geometry" />
        </mxCell>
        <mxCell id="hoTKAHF6jTt6GLiqsa_z-19" value="" style="rounded=0;whiteSpace=wrap;html=1;verticalAlign=top;fillColor=#f5f5f5;fontColor=#333333;strokeColor=#666666;strokeWidth=0.5;" vertex="1" parent="hoTKAHF6jTt6GLiqsa_z-22">
          <mxGeometry x="40" y="30" width="20" height="10" as="geometry" />
        </mxCell>
        <mxCell id="hoTKAHF6jTt6GLiqsa_z-21" value="" style="rounded=0;whiteSpace=wrap;html=1;verticalAlign=top;fillColor=#f5f5f5;fontColor=#333333;strokeColor=#666666;strokeWidth=0.5;" vertex="1" parent="hoTKAHF6jTt6GLiqsa_z-22">
          <mxGeometry x="80" y="30" width="20" height="10" as="geometry" />
        </mxCell>
        <mxCell id="hoTKAHF6jTt6GLiqsa_z-50" value="..." style="text;html=1;strokeColor=none;fillColor=none;align=center;verticalAlign=middle;whiteSpace=wrap;rounded=0;fontSize=6;" vertex="1" parent="hoTKAHF6jTt6GLiqsa_z-22">
          <mxGeometry x="40" y="-10" width="60" height="30" as="geometry" />
        </mxCell>
        <mxCell id="hoTKAHF6jTt6GLiqsa_z-51" value="..." style="text;html=1;strokeColor=none;fillColor=none;align=center;verticalAlign=middle;whiteSpace=wrap;rounded=0;fontSize=6;" vertex="1" parent="hoTKAHF6jTt6GLiqsa_z-22">
          <mxGeometry x="40" width="60" height="30" as="geometry" />
        </mxCell>
        <mxCell id="hoTKAHF6jTt6GLiqsa_z-52" value="..." style="text;html=1;strokeColor=none;fillColor=none;align=center;verticalAlign=middle;whiteSpace=wrap;rounded=0;fontSize=6;" vertex="1" parent="hoTKAHF6jTt6GLiqsa_z-22">
          <mxGeometry x="40" y="10" width="60" height="30" as="geometry" />
        </mxCell>
        <mxCell id="hoTKAHF6jTt6GLiqsa_z-53" value="..." style="text;html=1;strokeColor=none;fillColor=none;align=center;verticalAlign=middle;whiteSpace=wrap;rounded=0;fontSize=6;" vertex="1" parent="hoTKAHF6jTt6GLiqsa_z-22">
          <mxGeometry x="40" y="20" width="60" height="30" as="geometry" />
        </mxCell>
        <mxCell id="hoTKAHF6jTt6GLiqsa_z-24" value="Prepare &amp;amp; Transform&lt;br&gt;Data" style="rounded=0;whiteSpace=wrap;html=1;fillColor=#d5e8d4;strokeColor=#82b366;" vertex="1" parent="1">
          <mxGeometry x="190" y="230" width="170" height="80" as="geometry" />
        </mxCell>
        <mxCell id="hoTKAHF6jTt6GLiqsa_z-48" value="&lt;b&gt;Data&lt;/b&gt;" style="rounded=0;whiteSpace=wrap;html=1;verticalAlign=top;fillColor=#f5f5f5;fontColor=#333333;strokeColor=#666666;" vertex="1" parent="1">
          <mxGeometry x="360" y="120" width="120" height="80" as="geometry" />
        </mxCell>
        <mxCell id="hoTKAHF6jTt6GLiqsa_z-49" value="" style="endArrow=classic;html=1;rounded=0;exitX=0.5;exitY=1;exitDx=0;exitDy=0;entryX=0;entryY=0.5;entryDx=0;entryDy=0;" edge="1" parent="1" source="hoTKAHF6jTt6GLiqsa_z-1" target="hoTKAHF6jTt6GLiqsa_z-24">
          <mxGeometry width="50" height="50" relative="1" as="geometry">
            <mxPoint x="360" y="350" as="sourcePoint" />
            <mxPoint x="410" y="300" as="targetPoint" />
            <Array as="points">
              <mxPoint x="140" y="270" />
            </Array>
          </mxGeometry>
        </mxCell>
        <mxCell id="hoTKAHF6jTt6GLiqsa_z-54" value="" style="endArrow=classic;html=1;rounded=0;entryX=0.25;entryY=1;entryDx=0;entryDy=0;exitX=1;exitY=0.5;exitDx=0;exitDy=0;" edge="1" parent="1" source="hoTKAHF6jTt6GLiqsa_z-24" target="hoTKAHF6jTt6GLiqsa_z-48">
          <mxGeometry width="50" height="50" relative="1" as="geometry">
            <mxPoint x="370" y="260" as="sourcePoint" />
            <mxPoint x="450" y="340" as="targetPoint" />
            <Array as="points">
              <mxPoint x="390" y="270" />
            </Array>
          </mxGeometry>
        </mxCell>
        <mxCell id="hoTKAHF6jTt6GLiqsa_z-56" value="" style="endArrow=classic;html=1;rounded=0;exitX=0.75;exitY=1;exitDx=0;exitDy=0;entryX=0;entryY=0.5;entryDx=0;entryDy=0;" edge="1" parent="1" source="hoTKAHF6jTt6GLiqsa_z-48" target="hoTKAHF6jTt6GLiqsa_z-57">
          <mxGeometry width="50" height="50" relative="1" as="geometry">
            <mxPoint x="440" y="310" as="sourcePoint" />
            <mxPoint x="460" y="280" as="targetPoint" />
            <Array as="points">
              <mxPoint x="450" y="270" />
            </Array>
          </mxGeometry>
        </mxCell>
        <mxCell id="hoTKAHF6jTt6GLiqsa_z-57" value="CNN-2D Model" style="rounded=0;whiteSpace=wrap;html=1;fillColor=#e1d5e7;strokeColor=#9673a6;" vertex="1" parent="1">
          <mxGeometry x="490" y="230" width="170" height="80" as="geometry" />
        </mxCell>
        <mxCell id="hoTKAHF6jTt6GLiqsa_z-60" value="" style="rounded=0;whiteSpace=wrap;html=1;verticalAlign=top;fillColor=#f5f5f5;fontColor=#333333;strokeColor=#666666;strokeWidth=0.5;direction=south;" vertex="1" parent="1">
          <mxGeometry x="400" y="347" width="10" height="10" as="geometry" />
        </mxCell>
        <mxCell id="hoTKAHF6jTt6GLiqsa_z-65" value="" style="rounded=0;whiteSpace=wrap;html=1;verticalAlign=top;fillColor=#f5f5f5;fontColor=#333333;strokeColor=#666666;strokeWidth=0.5;direction=south;" vertex="1" parent="1">
          <mxGeometry x="410" y="347" width="10" height="10" as="geometry" />
        </mxCell>
        <mxCell id="hoTKAHF6jTt6GLiqsa_z-66" value="" style="rounded=0;whiteSpace=wrap;html=1;verticalAlign=top;fillColor=#f5f5f5;fontColor=#333333;strokeColor=#666666;strokeWidth=0.5;direction=south;" vertex="1" parent="1">
          <mxGeometry x="420" y="347" width="10" height="10" as="geometry" />
        </mxCell>
        <mxCell id="hoTKAHF6jTt6GLiqsa_z-67" value="" style="rounded=0;whiteSpace=wrap;html=1;verticalAlign=top;fillColor=#f5f5f5;fontColor=#333333;strokeColor=#666666;strokeWidth=0.5;direction=south;" vertex="1" parent="1">
          <mxGeometry x="430" y="347" width="10" height="10" as="geometry" />
        </mxCell>
        <mxCell id="hoTKAHF6jTt6GLiqsa_z-68" value="" style="rounded=0;whiteSpace=wrap;html=1;verticalAlign=top;fillColor=#f5f5f5;fontColor=#333333;strokeColor=#666666;strokeWidth=0.5;direction=south;" vertex="1" parent="1">
          <mxGeometry x="440" y="347" width="10" height="10" as="geometry" />
        </mxCell>
        <mxCell id="hoTKAHF6jTt6GLiqsa_z-69" value="" style="rounded=0;whiteSpace=wrap;html=1;verticalAlign=top;fillColor=#f5f5f5;fontColor=#333333;strokeColor=#666666;strokeWidth=0.5;direction=south;" vertex="1" parent="1">
          <mxGeometry x="400" y="357" width="10" height="10" as="geometry" />
        </mxCell>
        <mxCell id="hoTKAHF6jTt6GLiqsa_z-70" value="" style="rounded=0;whiteSpace=wrap;html=1;verticalAlign=top;fillColor=#f5f5f5;fontColor=#333333;strokeColor=#666666;strokeWidth=0.5;direction=south;" vertex="1" parent="1">
          <mxGeometry x="410" y="357" width="10" height="10" as="geometry" />
        </mxCell>
        <mxCell id="hoTKAHF6jTt6GLiqsa_z-71" value="" style="rounded=0;whiteSpace=wrap;html=1;verticalAlign=top;fillColor=#f5f5f5;fontColor=#333333;strokeColor=#666666;strokeWidth=0.5;direction=south;" vertex="1" parent="1">
          <mxGeometry x="420" y="357" width="10" height="10" as="geometry" />
        </mxCell>
        <mxCell id="hoTKAHF6jTt6GLiqsa_z-72" value="" style="rounded=0;whiteSpace=wrap;html=1;verticalAlign=top;fillColor=#f5f5f5;fontColor=#333333;strokeColor=#666666;strokeWidth=0.5;direction=south;" vertex="1" parent="1">
          <mxGeometry x="430" y="357" width="10" height="10" as="geometry" />
        </mxCell>
        <mxCell id="hoTKAHF6jTt6GLiqsa_z-73" value="" style="rounded=0;whiteSpace=wrap;html=1;verticalAlign=top;fillColor=#f5f5f5;fontColor=#333333;strokeColor=#666666;strokeWidth=0.5;direction=south;" vertex="1" parent="1">
          <mxGeometry x="440" y="357" width="10" height="10" as="geometry" />
        </mxCell>
        <mxCell id="hoTKAHF6jTt6GLiqsa_z-74" value="" style="rounded=0;whiteSpace=wrap;html=1;verticalAlign=top;fillColor=#f5f5f5;fontColor=#333333;strokeColor=#666666;strokeWidth=0.5;direction=south;" vertex="1" parent="1">
          <mxGeometry x="400" y="367" width="10" height="10" as="geometry" />
        </mxCell>
        <mxCell id="hoTKAHF6jTt6GLiqsa_z-75" value="" style="rounded=0;whiteSpace=wrap;html=1;verticalAlign=top;fillColor=#f5f5f5;fontColor=#333333;strokeColor=#666666;strokeWidth=0.5;direction=south;" vertex="1" parent="1">
          <mxGeometry x="410" y="367" width="10" height="10" as="geometry" />
        </mxCell>
        <mxCell id="hoTKAHF6jTt6GLiqsa_z-76" value="" style="rounded=0;whiteSpace=wrap;html=1;verticalAlign=top;fillColor=#f5f5f5;fontColor=#333333;strokeColor=#666666;strokeWidth=0.5;direction=south;" vertex="1" parent="1">
          <mxGeometry x="420" y="367" width="10" height="10" as="geometry" />
        </mxCell>
        <mxCell id="hoTKAHF6jTt6GLiqsa_z-77" value="" style="rounded=0;whiteSpace=wrap;html=1;verticalAlign=top;fillColor=#f5f5f5;fontColor=#333333;strokeColor=#666666;strokeWidth=0.5;direction=south;" vertex="1" parent="1">
          <mxGeometry x="430" y="367" width="10" height="10" as="geometry" />
        </mxCell>
        <mxCell id="hoTKAHF6jTt6GLiqsa_z-78" value="" style="rounded=0;whiteSpace=wrap;html=1;verticalAlign=top;fillColor=#f5f5f5;fontColor=#333333;strokeColor=#666666;strokeWidth=0.5;direction=south;" vertex="1" parent="1">
          <mxGeometry x="440" y="367" width="10" height="10" as="geometry" />
        </mxCell>
        <mxCell id="hoTKAHF6jTt6GLiqsa_z-79" value="" style="rounded=0;whiteSpace=wrap;html=1;verticalAlign=top;fillColor=#f5f5f5;fontColor=#333333;strokeColor=#666666;strokeWidth=0.5;direction=south;" vertex="1" parent="1">
          <mxGeometry x="400" y="377" width="10" height="10" as="geometry" />
        </mxCell>
        <mxCell id="hoTKAHF6jTt6GLiqsa_z-80" value="" style="rounded=0;whiteSpace=wrap;html=1;verticalAlign=top;fillColor=#f5f5f5;fontColor=#333333;strokeColor=#666666;strokeWidth=0.5;direction=south;" vertex="1" parent="1">
          <mxGeometry x="410" y="377" width="10" height="10" as="geometry" />
        </mxCell>
        <mxCell id="hoTKAHF6jTt6GLiqsa_z-81" value="" style="rounded=0;whiteSpace=wrap;html=1;verticalAlign=top;fillColor=#f5f5f5;fontColor=#333333;strokeColor=#666666;strokeWidth=0.5;direction=south;" vertex="1" parent="1">
          <mxGeometry x="420" y="377" width="10" height="10" as="geometry" />
        </mxCell>
        <mxCell id="hoTKAHF6jTt6GLiqsa_z-82" value="" style="rounded=0;whiteSpace=wrap;html=1;verticalAlign=top;fillColor=#f5f5f5;fontColor=#333333;strokeColor=#666666;strokeWidth=0.5;direction=south;" vertex="1" parent="1">
          <mxGeometry x="430" y="377" width="10" height="10" as="geometry" />
        </mxCell>
        <mxCell id="hoTKAHF6jTt6GLiqsa_z-83" value="" style="rounded=0;whiteSpace=wrap;html=1;verticalAlign=top;fillColor=#f5f5f5;fontColor=#333333;strokeColor=#666666;strokeWidth=0.5;direction=south;" vertex="1" parent="1">
          <mxGeometry x="440" y="377" width="10" height="10" as="geometry" />
        </mxCell>
        <mxCell id="hoTKAHF6jTt6GLiqsa_z-84" value="" style="rounded=0;whiteSpace=wrap;html=1;verticalAlign=top;fillColor=#f5f5f5;fontColor=#333333;strokeColor=#666666;strokeWidth=0.5;direction=south;" vertex="1" parent="1">
          <mxGeometry x="400" y="387" width="10" height="10" as="geometry" />
        </mxCell>
        <mxCell id="hoTKAHF6jTt6GLiqsa_z-85" value="" style="rounded=0;whiteSpace=wrap;html=1;verticalAlign=top;fillColor=#f5f5f5;fontColor=#333333;strokeColor=#666666;strokeWidth=0.5;direction=south;" vertex="1" parent="1">
          <mxGeometry x="410" y="387" width="10" height="10" as="geometry" />
        </mxCell>
        <mxCell id="hoTKAHF6jTt6GLiqsa_z-86" value="" style="rounded=0;whiteSpace=wrap;html=1;verticalAlign=top;fillColor=#f5f5f5;fontColor=#333333;strokeColor=#666666;strokeWidth=0.5;direction=south;" vertex="1" parent="1">
          <mxGeometry x="420" y="387" width="10" height="10" as="geometry" />
        </mxCell>
        <mxCell id="hoTKAHF6jTt6GLiqsa_z-87" value="" style="rounded=0;whiteSpace=wrap;html=1;verticalAlign=top;fillColor=#f5f5f5;fontColor=#333333;strokeColor=#666666;strokeWidth=0.5;direction=south;" vertex="1" parent="1">
          <mxGeometry x="430" y="387" width="10" height="10" as="geometry" />
        </mxCell>
        <mxCell id="hoTKAHF6jTt6GLiqsa_z-88" value="" style="rounded=0;whiteSpace=wrap;html=1;verticalAlign=top;fillColor=#f5f5f5;fontColor=#333333;strokeColor=#666666;strokeWidth=0.5;direction=south;" vertex="1" parent="1">
          <mxGeometry x="440" y="387" width="10" height="10" as="geometry" />
        </mxCell>
        <mxCell id="hoTKAHF6jTt6GLiqsa_z-89" value="" style="rounded=0;whiteSpace=wrap;html=1;verticalAlign=top;fillColor=#f5f5f5;fontColor=#333333;strokeColor=#666666;strokeWidth=0.5;direction=south;" vertex="1" parent="1">
          <mxGeometry x="400" y="397" width="10" height="10" as="geometry" />
        </mxCell>
        <mxCell id="hoTKAHF6jTt6GLiqsa_z-90" value="" style="rounded=0;whiteSpace=wrap;html=1;verticalAlign=top;fillColor=#f5f5f5;fontColor=#333333;strokeColor=#666666;strokeWidth=0.5;direction=south;" vertex="1" parent="1">
          <mxGeometry x="410" y="397" width="10" height="10" as="geometry" />
        </mxCell>
        <mxCell id="hoTKAHF6jTt6GLiqsa_z-91" value="" style="rounded=0;whiteSpace=wrap;html=1;verticalAlign=top;fillColor=#f5f5f5;fontColor=#333333;strokeColor=#666666;strokeWidth=0.5;direction=south;" vertex="1" parent="1">
          <mxGeometry x="420" y="397" width="10" height="10" as="geometry" />
        </mxCell>
        <mxCell id="hoTKAHF6jTt6GLiqsa_z-92" value="" style="rounded=0;whiteSpace=wrap;html=1;verticalAlign=top;fillColor=#f5f5f5;fontColor=#333333;strokeColor=#666666;strokeWidth=0.5;direction=south;" vertex="1" parent="1">
          <mxGeometry x="430" y="397" width="10" height="10" as="geometry" />
        </mxCell>
        <mxCell id="hoTKAHF6jTt6GLiqsa_z-93" value="" style="rounded=0;whiteSpace=wrap;html=1;verticalAlign=top;fillColor=#f5f5f5;fontColor=#333333;strokeColor=#666666;strokeWidth=0.5;direction=south;" vertex="1" parent="1">
          <mxGeometry x="440" y="397" width="10" height="10" as="geometry" />
        </mxCell>
      </root>
    </mxGraphModel>
  </diagram>
</mxfile>
